<?xml version="1.0" standalone="no"?>
<!DOCTYPE svg PUBLIC "-//W3C//DTD SVG 20010904//EN"
 "http://www.w3.org/TR/2001/REC-SVG-20010904/DTD/svg10.dtd">
<svg version="1.0" xmlns="http://www.w3.org/2000/svg"
 width="1200.000000pt" height="1200.000000pt" viewBox="0 0 1200.000000 1200.000000"
 preserveAspectRatio="xMidYMid meet">
<metadata>
Created by potrace 1.16, written by Peter Selinger 2001-2019
</metadata>
<g transform="translate(0.000000,1200.000000) scale(0.100000,-0.100000)"
fill="#000000" stroke="none">
<path d="M4586 8175 c-1121 -223 -1272 -255 -1287 -274 -27 -33 -59 -126 -76
-216 -25 -137 -5 -287 57 -427 l19 -44 1457 -489 c802 -268 1463 -488 1469
-488 18 0 1908 984 1933 1006 28 26 29 70 1 98 -17 17 -30 20 -64 16 -40 -4
-45 -2 -54 22 -18 44 -31 133 -25 170 19 123 21 126 87 157 88 42 117 69 117
108 0 20 -8 40 -19 50 -19 18 -2280 567 -2324 565 -12 -1 -593 -115 -1291
-254z m2166 -131 c343 -85 624 -156 625 -158 3 -3 -580 -249 -592 -249 -14 0
-1344 387 -1341 390 5 5 652 172 669 172 9 1 297 -69 639 -155z m-1936 -799
c786 -267 1436 -486 1444 -487 8 -1 380 188 825 420 446 231 817 424 826 427
13 5 15 1 12 -17 -4 -20 -134 -89 -845 -449 l-840 -426 -1434 476 c-1161 385
-1434 478 -1434 492 0 17 10 49 15 49 1 0 646 -218 1431 -485z m-9 -110 l1435
-475 666 336 c367 185 744 376 838 425 l170 88 10 -63 9 -63 -833 -434 c-458
-239 -842 -438 -855 -442 -17 -7 -361 101 -1447 453 -784 254 -1427 463 -1429
466 -8 8 -14 184 -6 184 4 0 653 -214 1442 -475z m15 -235 c766 -248 1400
-452 1408 -453 8 0 397 198 864 442 467 243 855 440 863 437 8 -4 13 -11 11
-17 -2 -6 -397 -215 -878 -465 l-875 -454 -1407 472 c-978 328 -1408 476
-1408 486 0 8 6 12 14 9 8 -3 642 -209 1408 -457z"/>
<path d="M3765 6774 c-181 -51 -341 -97 -354 -101 -31 -10 -65 -76 -93 -180
-31 -115 -30 -340 1 -478 31 -135 56 -199 84 -213 12 -6 207 -67 432 -134
l410 -123 -188 -3 -188 -2 -173 51 -172 51 -115 -49 -114 -48 -766 -5 -766 -5
141 -205 c78 -113 184 -266 235 -342 l93 -136 -231 -337 c-127 -185 -231 -341
-231 -346 0 -5 515 -9 1261 -9 l1261 0 893 -296 c794 -262 896 -294 917 -283
13 7 229 140 481 296 l458 283 1599 2 1600 3 -236 343 -236 343 83 122 c46 67
152 221 235 342 l152 220 -701 5 -701 5 -19 60 c-24 80 -33 244 -18 326 l12
65 66 39 c76 47 103 77 103 116 0 60 -37 82 -275 164 -121 42 -254 88 -295
102 l-75 27 -65 -35 -65 -34 -3 -103 c-3 -123 16 -218 51 -244 83 -64 78 -57
75 -111 l-3 -51 -259 -164 -260 -163 -55 3 -56 3 248 154 c137 84 255 164 264
177 13 20 13 29 3 54 -7 16 -20 32 -30 35 -41 13 -73 269 -51 401 l12 71 52
24 c73 34 107 65 107 98 0 15 -8 35 -17 43 -10 8 -155 68 -322 134 l-304 118
-709 -358 -709 -358 -1065 366 c-586 201 -1069 366 -1072 365 -4 -1 -155 -43
-337 -95z m1232 -680 c835 -245 1536 -448 1558 -451 37 -4 92 22 720 345 374
193 688 354 698 357 13 5 17 2 17 -13 0 -11 -6 -24 -12 -30 -7 -5 -311 -179
-675 -386 l-662 -376 -183 0 -183 0 -1413 434 c-777 238 -1415 436 -1418 439
-6 5 26 127 32 127 2 0 687 -201 1521 -446z m-223 -145 l1320 -404 -189 -3
-188 -2 -151 46 c-83 25 -466 143 -851 261 -385 118 -810 248 -945 289 -135
41 -266 82 -292 90 l-48 16 0 60 c0 44 3 59 13 56 6 -3 606 -187 1331 -409z
m3211 240 c5 -39 4 -54 -6 -60 -8 -5 -244 -139 -526 -299 l-511 -291 -97 3
-97 3 608 347 c335 190 612 346 616 347 3 1 9 -22 13 -50z m-3458 -336 l1005
-308 -208 -3 -208 -2 -819 241 c-451 132 -825 243 -832 245 -10 4 -35 113 -35
153 0 6 17 5 46 -4 25 -7 498 -152 1051 -322z m3481 161 c-2 -1 -178 -109
-392 -239 l-389 -236 -88 3 -88 3 472 267 472 268 8 -31 c5 -17 7 -33 5 -35z
m-3798 -259 l725 -214 -101 0 -101 -1 -619 186 c-340 102 -622 189 -625 193
-11 11 -21 51 -12 51 4 0 334 -97 733 -215z m3820 175 c0 -10 -15 -27 -32 -38
-18 -10 -154 -94 -301 -186 -262 -163 -270 -167 -318 -164 l-48 3 341 207
c188 114 345 205 350 202 4 -3 8 -13 8 -24z m628 -97 l-3 -57 -185 -118 -185
-117 -89 0 -89 -1 234 151 c129 83 250 161 269 174 19 13 39 24 43 24 4 1 7
-25 5 -56z m6 -135 c26 -123 26 -122 3 -140 -18 -15 -45 -18 -161 -18 l-140 0
140 89 c76 50 142 90 146 90 4 1 10 -9 12 -21z m-5403 -299 c50 -23 110 -78
125 -116 18 -42 18 -125 -1 -168 -29 -72 -126 -138 -245 -168 l-55 -14 55 -16
c71 -21 133 -74 156 -132 20 -53 15 -144 -10 -192 -24 -48 -101 -119 -159
-147 -104 -51 -148 -56 -464 -56 -171 0 -293 4 -293 9 0 34 13 41 80 41 42 0
71 5 78 13 12 15 242 865 242 895 0 20 -5 22 -69 22 -68 0 -68 0 -63 26 l5 26
291 -4 c240 -3 297 -6 327 -19z m1864 9 c-5 -16 -161 -593 -170 -630 -7 -27
-6 -28 36 -28 24 0 54 3 67 6 27 8 61 63 97 159 29 79 47 102 92 121 46 20 61
18 94 -15 24 -24 29 -38 29 -75 0 -55 -25 -86 -69 -86 -36 0 -55 22 -47 55 20
83 21 77 -10 73 -26 -3 -32 -11 -66 -97 -21 -51 -49 -108 -63 -127 -19 -25
-22 -34 -11 -34 8 0 28 -14 45 -31 35 -35 39 -71 17 -174 -23 -105 10 -134 73
-67 21 22 52 72 69 113 17 41 37 75 46 77 22 5 21 0 -28 -102 -76 -159 -154
-208 -235 -147 -32 24 -39 98 -17 174 33 114 18 142 -77 142 l-60 0 -46 -162
-46 -163 -47 0 c-27 0 -48 1 -48 3 0 1 60 220 134 487 73 267 131 488 129 493
-2 4 -37 7 -78 7 -68 0 -73 1 -68 20 5 19 14 20 134 20 98 0 127 -3 124 -12z
m1996 -10 c-7 -20 -16 -23 -75 -26 -55 -2 -68 -6 -80 -25 -13 -21 -246 -867
-246 -894 0 -10 42 -13 178 -13 165 0 181 2 227 24 69 32 128 102 184 218 30
64 52 97 63 98 14 0 9 -21 -28 -137 -24 -76 -51 -164 -60 -195 l-17 -58 -424
0 c-384 0 -425 2 -419 16 3 9 6 20 6 25 0 5 31 9 69 9 46 0 72 4 80 14 15 18
252 896 245 907 -3 5 -34 9 -70 9 -63 0 -70 4 -58 34 5 14 34 16 220 16 l213
0 -8 -22z m-3234 -375 c113 -53 138 -275 51 -447 -26 -51 -102 -132 -153 -161
-100 -59 -192 -52 -260 19 -49 50 -65 99 -65 195 0 264 238 484 427 394z m626
16 c56 -15 103 -62 128 -127 17 -48 20 -71 16 -144 -4 -74 -10 -99 -40 -162
-66 -139 -179 -228 -290 -229 -107 -1 -176 66 -196 190 -31 192 91 406 268
469 45 16 66 17 114 3z m1350 0 c77 -21 150 -120 131 -175 -18 -49 -81 -73
-112 -42 -21 21 -14 65 13 86 56 44 5 102 -90 102 -64 0 -111 -28 -132 -78
-27 -65 -12 -93 97 -175 116 -89 144 -125 137 -185 -7 -65 -52 -129 -117 -166
-47 -26 -64 -30 -126 -30 -55 1 -80 6 -115 25 -78 43 -113 145 -69 202 28 35
56 42 85 23 37 -24 32 -58 -12 -93 -30 -25 -35 -34 -29 -56 10 -42 48 -60 134
-65 69 -3 81 -1 112 20 45 31 62 64 56 111 -5 47 -19 63 -118 139 -88 66 -110
101 -110 168 0 91 56 161 150 186 59 16 69 16 115 3z m2020 0 c56 -15 103 -62
128 -127 17 -48 20 -71 16 -144 -4 -74 -10 -99 -40 -162 -90 -189 -261 -278
-389 -203 -108 63 -134 251 -58 414 48 104 156 203 243 223 46 11 58 11 100
-1z m498 -17 c27 -24 33 -37 37 -84 6 -79 -10 -140 -78 -300 -59 -138 -71
-193 -48 -216 18 -18 87 -14 133 7 114 53 242 275 233 402 -3 40 -6 45 -50 67
-57 29 -77 67 -56 108 29 59 107 51 140 -16 22 -44 24 -144 3 -225 -36 -142
-148 -310 -236 -355 -50 -26 -126 -42 -160 -35 -40 9 -76 47 -89 94 -16 62 3
146 70 301 70 163 73 175 66 206 -7 26 -41 33 -76 14 -22 -12 -90 -125 -111
-182 -16 -45 -45 -54 -34 -10 22 90 105 214 159 238 46 20 62 17 97 -14z m831
18 c54 -15 78 -51 78 -115 0 -42 -6 -60 -29 -92 -39 -54 -145 -107 -246 -124
-41 -6 -75 -12 -75 -13 0 0 -5 -39 -10 -86 -12 -101 -6 -141 26 -175 18 -20
33 -25 69 -25 25 0 58 6 74 14 38 20 97 88 123 141 24 50 55 63 44 19 -20 -79
-115 -177 -192 -200 -111 -32 -198 18 -238 139 -29 87 -12 222 41 319 50 93
152 178 238 199 43 10 56 10 97 -1z m-3630 -1036 l468 -156 246 157 247 156
79 -3 78 -3 -320 -198 -319 -198 -603 200 -603 200 130 0 130 1 467 -156z
m318 112 l142 -44 72 44 72 45 132 -3 132 -3 -203 -129 -202 -129 -390 131
-390 130 247 1 247 1 141 -44z"/>
<path d="M2913 5358 c-4 -7 -30 -98 -58 -203 l-51 -190 123 -3 c176 -4 235 17
298 107 26 38 30 52 33 124 4 96 -16 139 -73 163 -45 18 -260 20 -272 2z"/>
<path d="M2785 4898 c-14 -39 -115 -425 -115 -440 0 -17 12 -18 160 -18 184 0
195 3 259 76 94 107 93 297 -3 368 -24 18 -45 21 -162 24 -105 3 -135 1 -139
-10z"/>
<path d="M3716 4979 c-89 -78 -176 -354 -152 -482 17 -88 102 -116 172 -54 74
64 154 286 154 428 0 52 -5 73 -23 100 -20 29 -29 34 -69 37 -40 3 -51 -1 -82
-29z"/>
<path d="M4390 4983 c-81 -68 -149 -242 -157 -403 -5 -88 -3 -98 19 -130 21
-30 30 -35 70 -38 40 -3 51 1 82 29 76 66 149 272 150 421 1 111 -17 141 -86
146 -37 2 -51 -2 -78 -25z"/>
<path d="M7756 4980 c-79 -70 -144 -241 -153 -400 -5 -88 -3 -97 19 -130 20
-30 30 -35 70 -38 40 -3 51 1 82 28 77 68 161 308 154 442 -5 90 -27 122 -91
126 -39 3 -50 -1 -81 -28z"/>
<path d="M9090 4988 c-46 -32 -96 -108 -119 -182 l-19 -61 29 -3 c42 -5 138
25 177 54 17 14 39 39 48 55 19 38 22 123 4 143 -19 24 -81 20 -120 -6z"/>
</g>
</svg>
